#N canvas 827 239 527 327 12;
#X obj 707 83 cnv 15 2112 1246 empty empty OSC~\ Synth 20 12 0 14 #878787 #000000 0;
#X obj 1291 121 cnv 15 1490 942 empty empty Switches\ drone\ 1\ and\ 2\ octaves\ below\ main\ pitch\ (knob\ 5) 20 12 0 14 #3c3c3c #e1e1e1 0;
#X obj 1926 140 cnv 15 227 220 empty empty Pitch\ distributed\ to\ aeolean\ scale 20 12 0 14 #878787 #191919 0;
#X obj 752 123 cnv 15 505 940 empty empty Switches\ drone\ 1\ and\ 2\ octaves\ below\ main\ pitch\ (knob\ 5) 20 12 0 14 #3c3c3c #e1e1e1 0;
#X obj 763 180 cnv 15 482 295 empty empty Noise\ only\ active\ when\ dromes\ are\ on.\ Can\ be\ toggles\ with\ touchpads\ 0\ and\ 2 20 12 0 14 #878787 #000000 0;
#X obj 1008 551 cnv 15 237 296 empty empty empty 20 12 0 14 #696969 #e1e1e1 0;
#X obj 763 551 cnv 15 237 296 empty empty empty 20 12 0 14 #696969 #e1e1e1 0;
#X obj 784 562 r toggle1left @hv_param;
#X obj 829 590 r toggle1right @hv_param;
#X obj 1029 562 r toggle2up @hv_param;
#X obj 1067 590 r toggle2down @hv_param;
#X obj 784 747 *~ 0.5;
#X obj 927 804 *~;
#X obj 784 717 line~;
#X obj 784 657 t \$1 \$2;
#X msg 846 687 \$1 500;
#X obj 1028 747 *~ 0.5;
#X obj 1162 804 *~;
#X obj 1028 717 line~;
#X obj 1028 657 t \$1 \$2;
#X msg 1090 687 \$1 500;
#X obj 991 875 +~;
#X obj 990 1250 *~;
#X msg 1078 1149 \$1 20;
#X obj 1078 1177 line~, f 7;
#X obj 1078 1205 *~ 0.5;
#X obj 1377 1124 *~;
#X obj 1078 1122 r faderright @hv_param;
#X obj 1378 1290 s~ touchfeedback;
#X obj 1378 1263 *~;
#X msg 1377 1195 \$1 20;
#X obj 1377 1224 line~, f 7;
#X obj 1377 1169 r knob4 @hv_param;
#X obj 675 1431 +~;
#X obj 628 1722 dac~;
#X obj 622 1490 +~;
#X obj 722 1490 +~;
#X obj 622 1616 clip~ -1 1;
#X obj 722 1616 clip~ -1 1;
#X obj 71 501 cnv 15 555 780 empty empty stereo\ delay 20 12 0 14 #5d5d5d #e1e1e1 0;
#X obj 6 14 adc~;
#X obj 346 1188 *~;
#X obj 361 1244 +~;
#X obj 392 1188 *~;
#X obj 443 952 *~;
#X obj 419 633 +~;
#X obj 250 994 r knob3 @hv_param;
#X obj 268 682 r knob1 @hv_param;
#X obj 267 828 r knob2 @hv_param;
#X msg 267 854 \$1 20;
#X obj 267 883 line~, f 7;
#X msg 250 1021 \$1 20, f 7;
#X obj 422 898 delread4~ delay1;
#X obj 443 988 s~ feedback_l;
#X obj 430 589 r~ feedback_r;
#X obj 91 633 +~;
#X obj 102 589 r~ feedback_l;
#X obj 71 1196 *~;
#X obj 106 1252 +~;
#X obj 137 1196 *~;
#X obj 91 898 delread4~ delay2;
#X obj 118 952 *~;
#X obj 118 988 s~ feedback_r;
#X obj 91 684 delwrite~ delay2 5000;
#X obj 419 684 delwrite~ delay1 4000;
#X text 91 519 from petal_test >> made into stereo fx;
#X obj 250 1051 line~, f 7;
#X obj 265 1101 *~ -1;
#X obj 265 1127 +~ 1;
#X obj 154 847 line~;
#X obj 154 791 t f 5;
#X obj 154 819 pack f f;
#X obj 154 763 * 4999;
#X obj 451 848 line~;
#X obj 451 792 t f 5;
#X obj 451 820 pack f f;
#X obj 451 764 * 3999;
#X obj 450 520 r~ touchfeedback;
#X obj 473 633 +~;
#X obj 137 633 +~;
#X msg 21 1347 \$1 20;
#X obj 21 1375 line~, f 7;
#X obj 21 1403 *~ 0.5;
#X obj 21 1320 r faderleft @hv_param;
#X obj 1 1516 *~;
#X obj 43 1516 *~;
#X obj 628 1667 +~;
#X obj 675 1666 +~;
#X obj 73 83 cnv 15 553 404 empty empty The\ top\ TOUCH\ 10\ and\ 11\ Touchpads\ discouple\ adc\ from\ the\ delay\ input 20 12 0 14 #696969 #e1e1e1 0;
#X obj 170 411 *~;
#X obj 242 411 *~;
#X msg 784 620 0;
#X msg 830 620 1;
#X msg 1031 620 1;
#X msg 1069 620 0;
#X obj 213 343 line~;
#X msg 213 316 \$1 500;
#X obj 108 131 r mpr121_driver_ch10 @hv_param;
#X obj 335 131 r mpr121_driver_ch11 @hv_param;
#X obj 108 162 change;
#X obj 335 162 change;
#X msg 109 257 0;
#X msg 336 257 1;
#X obj 108 194 sel 1;
#X obj 335 194 sel 1;
#X obj 1618 362 cnv 15 275 267 empty empty empty 20 12 0 14 #878787 #e1e1e1 0;
#X obj 1647 518 *~ 0.5;
#X obj 1647 399 change;
#X obj 1647 494 line~;
#X obj 1647 436 sel 0 1;
#X obj 1655 573 *~;
#X msg 1950 196 \$1 20;
#X obj 1950 165 r knob5 @hv_param;
#X obj 1950 228 line~;
#X obj 2183 362 cnv 15 275 267 empty empty empty 20 12 0 14 #878787 #e1e1e1 0;
#X obj 2212 518 *~ 0.5;
#X obj 2212 399 change;
#X obj 2212 494 line~;
#X obj 2212 436 sel 0 1;
#X obj 2201 573 *~;
#X obj 2212 373 r mpr121_driver_ch6 @hv_param;
#X obj 2347 551 osc~;
#X obj 2347 503 mtof~;
#X obj 1647 373 r mpr121_driver_ch4 @hv_param;
#X obj 1753 551 osc~;
#X obj 1950 324 s~ pitch;
#X obj 2347 418 r~ pitch;
#X msg 2212 464 0 500;
#X msg 1647 464 0 500;
#X msg 1698 464 1 20;
#X msg 2263 464 1 10;
#X obj 2183 663 cnv 15 275 267 empty empty empty 20 12 0 14 #878787 #e1e1e1 0;
#X obj 2212 819 *~ 0.5;
#X obj 2212 700 change;
#X obj 2212 795 line~;
#X obj 2212 737 sel 0 1;
#X obj 2212 877 *~;
#X obj 2347 852 osc~;
#X obj 2347 804 mtof~;
#X obj 2347 719 r~ pitch;
#X msg 2212 765 0 500;
#X msg 2263 765 1 10;
#X obj 2482 362 cnv 15 275 267 empty empty empty 20 12 0 14 #878787 #e1e1e1 0;
#X obj 2511 518 *~ 0.5;
#X obj 2511 399 change;
#X obj 2511 494 line~;
#X obj 2511 436 sel 0 1;
#X obj 2499 573 *~;
#X obj 2646 551 osc~;
#X obj 2646 503 mtof~;
#X obj 2646 418 r~ pitch;
#X msg 2511 464 0 500;
#X msg 2562 464 1 10;
#X obj 2511 373 r mpr121_driver_ch7 @hv_param;
#X obj 2212 674 r mpr121_driver_ch9 @hv_param;
#X obj 1618 663 cnv 15 275 267 empty empty empty 20 12 0 14 #878787 #e1e1e1 0;
#X obj 1647 819 *~ 0.5;
#X obj 1647 700 change;
#X obj 1647 795 line~;
#X obj 1647 737 sel 0 1;
#X obj 1636 877 *~;
#X obj 1782 852 osc~;
#X obj 1782 804 mtof~;
#X obj 1782 719 r~ pitch;
#X msg 1647 765 0 500;
#X msg 1698 765 1 10;
#X obj 1320 362 cnv 15 275 267 empty empty empty 20 12 0 14 #878787 #e1e1e1 0;
#X obj 1349 518 *~ 0.5;
#X obj 1349 399 change;
#X obj 1349 494 line~;
#X obj 1349 436 sel 0 1;
#X obj 1338 576 *~;
#X obj 1484 551 osc~;
#X obj 1484 418 r~ pitch;
#X msg 1349 464 0 500;
#X msg 1400 464 1 10;
#X obj 1349 373 r mpr121_driver_ch3 @hv_param;
#X obj 1647 674 r mpr121_driver_ch8 @hv_param;
#X obj 1753 503 mtof~;
#X obj 1753 418 r~ pitch;
#X obj 1855 1024 clip~ -1 1;
#X obj 1950 292 ftom~;
#X obj 1484 503 mtof~;
#X obj 1917 410 cnv 15 245 462 empty empty empty 20 12 0 14 #878787 #e1e1e1 0;
#X obj 1938 566 *~ 0.5;
#X obj 1938 447 change;
#X obj 1938 542 line~;
#X obj 1938 484 sel 0 1;
#X obj 1946 621 *~;
#X obj 2044 599 osc~;
#X msg 1938 512 0 500;
#X msg 1989 512 1 20;
#X obj 2044 551 mtof~;
#X obj 2044 466 r~ pitch;
#X obj 2347 478 +~ 5;
#X obj 1938 421 r mpr121_driver_ch5 @hv_param;
#X obj 1753 478 +~ 1;
#X obj 2044 518 +~ 3;
#X obj 2646 478 +~ 6;
#X obj 1782 779 +~ 8;
#X obj 2347 779 +~ 10;
#X obj 398 316 s recled @hv_param;
#X msg 398 286 \$1 500;
#X msg 398 257 0;
#X msg 432 257 1;
#X obj 1338 603 *~ 0.4, f 10;
#X obj 1655 603 *~ 0.4;
#X obj 1946 651 *~ 0.4;
#X obj 1636 904 *~ 0.4, f 9;
#X obj 2201 603 *~ 0.4, f 8;
#X obj 2212 904 *~ 0.4, f 9;
#X obj 1950 260 *~ 440;
#X obj 1162 694 mtof~;
#X obj 1162 634 r~ pitch;
#X obj 927 694 mtof~;
#X obj 927 634 r~ pitch;
#X obj 1162 664 -~ 12.2;
#X obj 927 664 -~ 23.88;
#X obj 927 722 osc~;
#X obj 1162 722 osc~;
#X obj 1162 769 +~;
#X obj 786 206 noise~, f 8;
#X obj 927 769 +~;
#X obj 786 434 *~, f 6;
#X msg 784 687 \$1 1000;
#X msg 1028 687 \$1 1000;
#X obj 848 408 line~, f 7;
#X obj 848 281 change, f 9;
#X obj 1003 281 change, f 9;
#X msg 849 346 0, f 4;
#X obj 848 313 sel 1, f 6;
#X obj 1003 313 sel 1, f 6;
#X obj 848 207 r mpr121_driver_ch0 @hv_param, f 30;
#X obj 1003 244 r mpr121_driver_ch2 @hv_param, f 30;
#X msg 848 381 \$1 1000, f 9;
#X msg 1079 913 \$1 20;
#X obj 1079 891 r knob0 @hv_param;
#X obj 1079 942 line~;
#X obj 991 1004 *~;
#X obj 1079 976 *~ 1.5;
#X msg 1003 346 0.1, f 5;
#X obj 786 244 *~ 0.2, f 8;
#X obj 2499 603 *~ 0.35, f 10;
#X text 1079 866 Drone Volume;
#X connect 7 0 91 0;
#X connect 8 0 92 0;
#X connect 9 0 93 0;
#X connect 10 0 94 0;
#X connect 11 0 12 1;
#X connect 12 0 21 0;
#X connect 13 0 11 0;
#X connect 14 0 224 0;
#X connect 14 1 15 0;
#X connect 15 0 13 0;
#X connect 16 0 17 1;
#X connect 17 0 21 1;
#X connect 18 0 16 0;
#X connect 19 0 225 0;
#X connect 19 1 20 0;
#X connect 20 0 18 0;
#X connect 21 0 238 0;
#X connect 22 0 33 0;
#X connect 23 0 24 0;
#X connect 24 0 25 0;
#X connect 25 0 26 1;
#X connect 25 0 22 1;
#X connect 26 0 29 0;
#X connect 26 0 33 1;
#X connect 27 0 23 0;
#X connect 29 0 28 0;
#X connect 30 0 31 0;
#X connect 31 0 29 1;
#X connect 32 0 30 0;
#X connect 33 0 35 1;
#X connect 33 0 36 1;
#X connect 35 0 37 0;
#X connect 36 0 38 0;
#X connect 37 0 86 1;
#X connect 38 0 87 1;
#X connect 40 0 84 0;
#X connect 40 0 89 0;
#X connect 40 1 85 0;
#X connect 40 1 90 0;
#X connect 41 0 42 0;
#X connect 42 0 35 0;
#X connect 43 0 42 1;
#X connect 44 0 53 0;
#X connect 45 0 78 0;
#X connect 46 0 51 0;
#X connect 47 0 72 0;
#X connect 47 0 76 0;
#X connect 48 0 49 0;
#X connect 49 0 50 0;
#X connect 50 0 61 1;
#X connect 50 0 44 1;
#X connect 51 0 66 0;
#X connect 52 0 44 0;
#X connect 52 0 43 0;
#X connect 54 0 45 1;
#X connect 55 0 79 0;
#X connect 56 0 55 1;
#X connect 57 0 58 0;
#X connect 58 0 36 0;
#X connect 59 0 58 1;
#X connect 60 0 61 0;
#X connect 60 0 59 0;
#X connect 61 0 62 0;
#X connect 66 0 59 1;
#X connect 66 0 67 0;
#X connect 66 0 43 1;
#X connect 67 0 68 0;
#X connect 68 0 57 1;
#X connect 68 0 41 1;
#X connect 69 0 60 0;
#X connect 70 0 71 0;
#X connect 70 1 71 1;
#X connect 71 0 69 0;
#X connect 72 0 70 0;
#X connect 73 0 52 0;
#X connect 74 0 75 0;
#X connect 74 1 75 1;
#X connect 75 0 73 0;
#X connect 76 0 74 0;
#X connect 77 0 78 1;
#X connect 77 0 79 1;
#X connect 78 0 64 0;
#X connect 79 0 63 0;
#X connect 80 0 81 0;
#X connect 81 0 82 0;
#X connect 82 0 85 1;
#X connect 82 0 84 1;
#X connect 83 0 80 0;
#X connect 84 0 86 0;
#X connect 85 0 87 0;
#X connect 86 0 34 0;
#X connect 87 0 34 1;
#X connect 89 0 55 0;
#X connect 89 0 57 0;
#X connect 90 0 45 0;
#X connect 90 0 41 0;
#X connect 91 0 14 0;
#X connect 92 0 14 0;
#X connect 93 0 19 0;
#X connect 94 0 19 0;
#X connect 95 0 89 1;
#X connect 95 0 90 1;
#X connect 96 0 95 0;
#X connect 97 0 99 0;
#X connect 98 0 100 0;
#X connect 99 0 103 0;
#X connect 100 0 104 0;
#X connect 101 0 96 0;
#X connect 102 0 96 0;
#X connect 103 0 101 0;
#X connect 103 0 204 0;
#X connect 104 0 102 0;
#X connect 104 0 203 0;
#X connect 106 0 110 1;
#X connect 107 0 109 0;
#X connect 108 0 106 0;
#X connect 109 0 128 0;
#X connect 109 1 129 0;
#X connect 110 0 206 0;
#X connect 111 0 113 0;
#X connect 112 0 111 0;
#X connect 113 0 211 0;
#X connect 115 0 119 1;
#X connect 116 0 118 0;
#X connect 117 0 115 0;
#X connect 118 0 127 0;
#X connect 118 1 130 0;
#X connect 119 0 209 0;
#X connect 120 0 116 0;
#X connect 121 0 119 0;
#X connect 122 0 121 0;
#X connect 123 0 107 0;
#X connect 124 0 110 0;
#X connect 126 0 194 0;
#X connect 127 0 117 0;
#X connect 128 0 108 0;
#X connect 129 0 108 0;
#X connect 130 0 117 0;
#X connect 132 0 136 1;
#X connect 133 0 135 0;
#X connect 134 0 132 0;
#X connect 135 0 140 0;
#X connect 135 1 141 0;
#X connect 136 0 210 0;
#X connect 137 0 136 0;
#X connect 138 0 137 0;
#X connect 139 0 200 0;
#X connect 140 0 134 0;
#X connect 141 0 134 0;
#X connect 143 0 147 1;
#X connect 144 0 146 0;
#X connect 145 0 143 0;
#X connect 146 0 151 0;
#X connect 146 1 152 0;
#X connect 147 0 242 0;
#X connect 148 0 147 0;
#X connect 149 0 148 0;
#X connect 150 0 198 0;
#X connect 151 0 145 0;
#X connect 152 0 145 0;
#X connect 153 0 144 0;
#X connect 154 0 133 0;
#X connect 156 0 160 1;
#X connect 157 0 159 0;
#X connect 158 0 156 0;
#X connect 159 0 164 0;
#X connect 159 1 165 0;
#X connect 160 0 208 0;
#X connect 161 0 160 0;
#X connect 162 0 161 0;
#X connect 163 0 199 0;
#X connect 164 0 158 0;
#X connect 165 0 158 0;
#X connect 167 0 171 1;
#X connect 168 0 170 0;
#X connect 169 0 167 0;
#X connect 170 0 174 0;
#X connect 170 1 175 0;
#X connect 171 0 205 0;
#X connect 172 0 171 0;
#X connect 173 0 182 0;
#X connect 174 0 169 0;
#X connect 175 0 169 0;
#X connect 176 0 168 0;
#X connect 177 0 157 0;
#X connect 178 0 124 0;
#X connect 179 0 196 0;
#X connect 180 0 26 0;
#X connect 181 0 125 0;
#X connect 182 0 172 0;
#X connect 184 0 188 1;
#X connect 185 0 187 0;
#X connect 186 0 184 0;
#X connect 187 0 190 0;
#X connect 187 1 191 0;
#X connect 188 0 207 0;
#X connect 189 0 188 0;
#X connect 190 0 186 0;
#X connect 191 0 186 0;
#X connect 192 0 189 0;
#X connect 193 0 197 0;
#X connect 194 0 122 0;
#X connect 195 0 185 0;
#X connect 196 0 178 0;
#X connect 197 0 192 0;
#X connect 198 0 149 0;
#X connect 199 0 162 0;
#X connect 200 0 138 0;
#X connect 202 0 201 0;
#X connect 203 0 202 0;
#X connect 204 0 202 0;
#X connect 205 0 180 0;
#X connect 206 0 180 0;
#X connect 207 0 180 0;
#X connect 208 0 180 0;
#X connect 209 0 180 0;
#X connect 210 0 180 0;
#X connect 211 0 181 0;
#X connect 212 0 219 0;
#X connect 213 0 216 0;
#X connect 214 0 218 0;
#X connect 215 0 217 0;
#X connect 216 0 212 0;
#X connect 217 0 214 0;
#X connect 218 0 222 1;
#X connect 219 0 220 1;
#X connect 220 0 17 0;
#X connect 221 0 241 0;
#X connect 222 0 12 0;
#X connect 223 0 220 0;
#X connect 223 0 222 0;
#X connect 224 0 13 0;
#X connect 225 0 18 0;
#X connect 226 0 223 1;
#X connect 227 0 230 0;
#X connect 228 0 231 0;
#X connect 229 0 234 0;
#X connect 230 0 229 0;
#X connect 231 0 240 0;
#X connect 232 0 227 0;
#X connect 233 0 228 0;
#X connect 234 0 226 0;
#X connect 235 0 237 0;
#X connect 236 0 235 0;
#X connect 237 0 239 0;
#X connect 238 0 22 0;
#X connect 239 0 238 1;
#X connect 240 0 234 0;
#X connect 241 0 223 0;
#X connect 242 0 180 0;
